<svg width="14" height="14" viewBox="0 0 14 14" fill="none" xmlns="http://www.w3.org/2000/svg">
<circle cx="7" cy="7" r="7" fill="#CCAC7C"/>
<path d="M6.54644 8.34931C6.54644 8.07249 6.5896 7.83028 6.67594 7.62266C6.76892 7.40813 6.8785 7.2282 7.00469 7.08287C7.13752 6.93754 7.31019 6.76453 7.52272 6.56384C7.78837 6.32163 7.98429 6.11401 8.11048 5.941C8.23666 5.76107 8.29976 5.54654 8.29976 5.29741C8.29976 4.95831 8.17357 4.68841 7.9212 4.48772C7.66883 4.2801 7.32015 4.1763 6.87518 4.1763C6.09814 4.1763 5.50374 4.44965 5.09198 4.99637L4.36475 4.45657C4.64368 4.08287 4.999 3.79568 5.43069 3.59498C5.86902 3.39429 6.37376 3.29395 6.94492 3.29395C7.66883 3.29395 8.2433 3.46004 8.66835 3.79222C9.0934 4.11747 9.30592 4.5673 9.30592 5.1417C9.30592 5.42543 9.25943 5.67803 9.16645 5.89948C9.08012 6.11401 8.97385 6.29395 8.84767 6.43927C8.72148 6.5846 8.55213 6.75761 8.3396 6.9583C8.06731 7.21436 7.86475 7.43927 7.73192 7.63305C7.60573 7.82682 7.54264 8.06557 7.54264 8.34931H6.54644ZM7.0545 10.7057C6.86854 10.7057 6.71247 10.6434 6.58628 10.5189C6.46674 10.3874 6.40697 10.2282 6.40697 10.0413C6.40697 9.8545 6.46674 9.69879 6.58628 9.57422C6.71247 9.44273 6.86854 9.37699 7.0545 9.37699C7.24046 9.37699 7.39321 9.44273 7.51275 9.57422C7.6323 9.69879 7.69207 9.8545 7.69207 10.0413C7.69207 10.2282 7.62898 10.3874 7.50279 10.5189C7.38325 10.6434 7.23382 10.7057 7.0545 10.7057Z" fill="white"/>
</svg>
